<svg xmlns="http://www.w3.org/2000/svg" version="1.1" xmlns:xlink="http://www.w3.org/1999/xlink" xmlns:svgjs="http://svgjs.dev/svgjs" width="1440" height="560" preserveAspectRatio="none" viewBox="0 0 1440 560"><g mask="url(&quot;#SvgjsMask1000&quot;)" fill="none"><rect width="1440" height="560" x="0" y="0" fill="#0e2a47"></rect><path d="M909.6484645214153 295.50147228557495L848.6825204670502 410.1617367534435 963.3427849349187 471.12768080780876 1024.308728989284 356.4674163399402z" fill="rgba(28, 83, 142, 0.4)" class="triangle-float1"></path><path d="M1472.4300043759654 373.18400046986926L1342.1375909813185 384.5831095853341 1353.5367000967833 514.875522979981 1483.8291134914302 503.4764138645162z" fill="rgba(28, 83, 142, 0.4)" class="triangle-float3"></path><path d="M985.7577781400241-19.572085949242904L1020.518621959326 87.75873054625887 1087.7786046410906 15.631229681532226z" fill="rgba(28, 83, 142, 0.4)" class="triangle-float3"></path><path d="M223.7733690785943 461.51016974965086L292.78783083289863 517.396978937834 342.1108137380212 385.93188171228593z" fill="rgba(28, 83, 142, 0.4)" class="triangle-float1"></path><path d="M1391.451,581.033C1451.278,579.193,1503.762,541.091,1530.463,487.522C1554.604,439.089,1541.216,383.267,1513.06,337.053C1486.235,293.024,1443.006,258.869,1391.451,259.357C1340.621,259.838,1301.529,296.736,1273.766,339.317C1242.249,387.656,1211.537,444.669,1236.798,496.552C1264.358,553.157,1328.523,582.968,1391.451,581.033" fill="rgba(28, 83, 142, 0.4)" class="triangle-float1"></path><path d="M440.504,195.212C481.703,193.551,510.108,158.075,529.432,121.652C547.298,87.978,555.103,48.163,536.032,15.156C516.97,-17.835,478.573,-33.844,440.504,-32.262C405.087,-30.79,376.762,-7.391,357.806,22.563C337.062,55.342,321.466,94.376,338.224,129.361C356.999,168.557,397.079,196.963,440.504,195.212" fill="rgba(28, 83, 142, 0.4)" class="triangle-float3"></path></g><defs><mask id="SvgjsMask1000"><rect width="1440" height="560" fill="#ffffff"></rect></mask><style>
                @keyframes float1 {
                    0%{transform: translate(0, 0)}
                    50%{transform: translate(-10px, 0)}
                    100%{transform: translate(0, 0)}
                }

                .triangle-float1 {
                    animation: float1 5s infinite;
                }

                @keyframes float2 {
                    0%{transform: translate(0, 0)}
                    50%{transform: translate(-5px, -5px)}
                    100%{transform: translate(0, 0)}
                }

                .triangle-float2 {
                    animation: float2 4s infinite;
                }

                @keyframes float3 {
                    0%{transform: translate(0, 0)}
                    50%{transform: translate(0, -10px)}
                    100%{transform: translate(0, 0)}
                }

                .triangle-float3 {
                    animation: float3 6s infinite;
                }
            </style></defs></svg>